<svg viewBox="0 0 26 26" version="1.1" xmlns="http://www.w3.org/2000/svg">
    <path fill="#f46f21" d="M25.6868468,13.7338122 C25.3186149,7.69639555 20.2615294,3.01955001 14.2137853,3.12340503 C8.16604123,3.22726004 3.27251657,8.07498265 3.11179601,14.1214827 C2.95107545,20.1679828 7.58015976,25.2688236 13.6138468,25.6938122 C13.3248468,25.7108122 13.0338468,25.7178122 12.7408468,25.7158122 C7.54031498,25.668264 2.8805401,22.4925715 0.934490384,17.6696386 C-1.01155933,12.8467056 0.139384102,7.32639277 3.8506073,3.68295838 C7.5618305,0.0395240033 13.1024205,-1.00946968 17.8886631,1.02514903 C22.6749057,3.05976775 25.7641665,7.7772875 25.7158468,12.9778122 C25.7128468,13.2318122 25.7048468,13.4838122 25.6868468,13.7338122 Z M14.9788468,24.1158122 C11.2263059,24.0780626 7.88767577,21.7248316 6.59062123,18.2033777 C5.29356669,14.6819238 6.30809202,10.7252983 9.13959099,8.26245414 C11.97109,5.79960994 16.0301372,5.34323053 19.3378468,7.11581218 C17.6798279,7.69679533 16.5738887,9.26676201 16.5850723,11.0235896 C16.5962559,12.7804171 17.7220929,14.3361767 19.387374,14.8960044 C21.0526551,15.455832 22.8896661,14.8961109 23.9598468,13.5028122 C24.4281778,16.1485334 23.6950793,18.8654629 21.9594413,20.9164957 C20.2238034,22.9675285 17.6655901,24.139998 14.9788468,24.1158122 Z"></path>
</svg>
